# xmcd CD database file
#
# Track frame offsets:
#       150
#       19599
#       38922
#       60324
#       79764
#       94461
#       111048
#       127752
#       144564
#       161889
#
# Disc length: 2370 seconds
#
# Revision: 0
# Processed by: cddbd v1.5.2PL0 Copyright (c) Steve Scherf et al.
# Submitted via: jack 3.1.1
#
DISCID=7b09400a
DTITLE=Solid Rock - York Street
DYEAR=2012
DGENRE=Rock
TTITLE0=Could Have Been Wrong
TTITLE1=Local Scene
TTITLE2=The Company They Keep
TTITLE3=Charlie Wilson's War
TTITLE4=One Chance
TTITLE5=Red Rice Burner
TTITLE6=Roots
TTITLE7=Star
TTITLE8=Walk One Mile
TTITLE9=Candy
EXTD=
EXTT0=
EXTT1=
EXTT2=
EXTT3=
EXTT4=
EXTT5=
EXTT6=
EXTT7=
EXTT8=
EXTT9=
PLAYORDER=
